# xmcd CD database file
#
# Track frame offsets:
#	150
#	13038
#	27448
#	42577
#	65475
#	83189
#	101128
#	119225
#	136220
#	149918
#	165434
#	178163
#	194998
#	211823
#	227708
#	245986
#	261375
#	275246
#
# Disc length: 3907 seconds
#
# Revision: 1
# Processed by: cddbd v1.5.2PL0 Copyright (c) Steve Scherf et al.
# Submitted via: jetAudio 7
#
DISCID=2d0f4112
DTITLE=Various Artist - There's More To Country 2 CD 1
DYEAR=2008
DGENRE=Country
TTITLE0=Summer's Little Angel
TTITLE1=Yeah She Does
TTITLE2=High Maintenance Woman
TTITLE3=Hicktown
TTITLE4=Big Skies
TTITLE5=Big Star
TTITLE6=A Real Fine Place To Start
TTITLE7=Fast Car
TTITLE8=Everyday Girl
TTITLE9=Take That As A Yes (The Hot Tub Song)
TTITLE10=Party Till The Money's All Gone
TTITLE11=She Likes To Get Out Of Town
TTITLE12=Red High Heals
TTITLE13=A Feeling Like That
TTITLE14=The World
TTITLE15=Halloweenhead
TTITLE16=It Ain't Easy
TTITLE17=Stephenville, TX
EXTD=
EXTT0=
EXTT1=
EXTT2=
EXTT3=
EXTT4=
EXTT5=
EXTT6=
EXTT7=
EXTT8=
EXTT9=
EXTT10=
EXTT11=
EXTT12=
EXTT13=
EXTT14=
EXTT15=
EXTT16=
EXTT17=
PLAYORDER=
